#!OML:ASF F:\VICON\USERDATA\INSTALL\rory3\rory3.ASF
:FULLY-SPECIFIED
:DEGREES
562
root 4.81249 16.3523 -17.5073 30.2575 -1.33339 -4.42402
lowerback 11.1028 -0.157386 1.5738
upperback -8.37275 1.77227 12.0426
thorax -16.4152 1.71746 12.9351
lowerneck -13.5682 2.89802 1.89259
upperneck 1.6728 3.82061 -4.75329
head 3.09336 1.71586 -1.64396
rclavicle 3.49861e-014 -8.5875e-014
rhumerus 139.111 -19.8531 -253.915
rradius 10.9191
rwrist 146.959
rhand -8.135 20.9868
rfingers 7.12502
rthumb 17.7789 -8.22043
lclavicle 3.49861e-014 -8.5875e-014
lhumerus 39.5433 -10.2682 109.221
lradius 14.8263
lwrist -44.9627
lhand 10.4072 27.7509
lfingers 7.12502
lthumb 35.5125 54.1857
rfemur -56.6735 -1.6438 38.0307
rtibia 35.9036
rfoot -14.9768 -20.8626
rtoes 6.76513
lfemur -41.9938 23.6997 -41.1424
ltibia 56.8047
lfoot 38.0732 36.0506
ltoes 5.3127
563
root 4.79575 16.331 -17.5067 30.1441 -1.3667 -4.55896
lowerback 10.981 -0.237785 1.44114
upperback -8.41412 1.6209 12.0047
thorax -16.3535 1.65546 13.001
lowerneck -12.3989 2.89753 1.98519
upperneck 1.34829 3.79809 -4.62478
head 2.7581 1.72993 -1.6264
rclavicle 1.90833e-014 -8.26944e-014
rhumerus 140.864 -19.7444 -258.093
rradius 10.9423
rwrist 144.772
rhand -10.0124 21.6927
rfingers 7.12502
rthumb 15.9717 -7.6688
lclavicle 1.90833e-014 -8.26944e-014
lhumerus 38.3238 -12.7013 109.653
lradius 14.7572
lwrist -44.2074
lhand 11.7272 28.6053
lfingers 7.12502
lthumb 36.7627 54.7307
rfemur -56.668 -1.27535 38.0357
rtibia 36.303
rfoot -15.4416 -21.0648
rtoes 6.87619
lfemur -42.3644 23.5113 -41.047
ltibia 57.5355
lfoot 31.9949 39.1706
ltoes 13.2434
564
root 4.77655 16.3061 -17.5024 30.0048 -1.5536 -4.58498
lowerback 10.8729 -0.303111 1.13265
upperback -8.38189 1.44142 11.9019
thorax -16.2004 1.58663 13.0864
lowerneck -11.8366 2.90793 2.2374
upperneck 1.48928 3.78367 -4.54487
head 2.70513 1.73401 -1.65034
rclavicle 4.6118e-014 -3.18055e-014
rhumerus 139.625 -30.8486 -253.546
rradius 8.36687
rwrist 128.629
rhand -10.5812 20.3508
rfingers 7.12502
rthumb 15.4239 -9.05372
lclavicle 4.6118e-014 -3.18055e-014
lhumerus 39.8971 -24.7828 100.075
lradius 16.5456
lwrist -29.5854
lhand 9.88112 30.7737
lfingers 7.12502
lthumb 35.0136 57.3266
rfemur -56.6416 -0.824686 37.8665
rtibia 36.6528
rfoot -15.7916 -21.4152
rtoes 7.35512
lfemur -42.7406 23.4114 -41.1729
ltibia 58.3345
lfoot 24.6927 40.931
ltoes 21.8201
565
root 4.75493 16.2754 -17.487 29.7394 -1.82107 -4.52156
lowerback 10.84 -0.159344 0.691842
upperback -8.23129 1.51275 11.6931
thorax -16.0027 1.63554 13.0437
lowerneck -12.2469 2.78432 2.59619
upperneck 2.07329 3.57669 -4.4754
head 2.98319 1.62743 -1.70439
rclavicle 3.97569e-014 -1.90833e-014
rhumerus 135.122 -40.6555 -246.798
rradius 7.55242
rwrist 112.154
rhand -9.51604 19.3571
rfingers 7.12502
rthumb 16.4496 -9.96548
lclavicle 3.97569e-014 -1.90833e-014
lhumerus 42.8448 -34.064 92.6702
lradius 18.1721
lwrist -19.1166
lhand 6.30317 31.9604
lfingers 7.12502
lthumb 31.6122 59.2434
rfemur -56.4704 -0.414797 37.6238
rtibia 37.0166
rfoot -15.7903 -21.9493
rtoes 6.30608
lfemur -43.0012 23.4519 -41.4099
ltibia 59.186
lfoot 23.5746 41.3668
ltoes 23.3747
566
root 4.73305 16.2494 -17.4676 29.3688 -2.10121 -4.56831
lowerback 10.8016 -0.20085 0.274651
upperback -8.21236 1.36639 11.6614
thorax -15.9309 1.60814 13.2906
lowerneck -10.7063 2.8128 2.16528
upperneck 1.76886 3.65985 -3.91362
head 2.56359 1.70574 -1.44505
rclavicle -3.33958e-014 -6.04305e-014
rhumerus 129.851 -51.8577 -239.639
rradius 5.12694
rwrist 95.5939
rhand -10.1303 18.9368
rfingers 7.12502
rthumb 15.8582 -10.4338
lclavicle -3.33958e-014 -6.04305e-014
lhumerus 33.5303 -16.3317 114.927
lradius 14.9631
lwrist -45.2338
lhand 7.34238 27.1792
lfingers 7.12502
lthumb 32.6015 54.2627
rfemur -56.1963 -0.150101 37.6173
rtibia 37.4694
rfoot -15.6425 -22.2522
rtoes 4.38069
lfemur -43.1892 23.7131 -41.5545
ltibia 60.0998
lfoot 22.2704 41.3625
ltoes 24.9314
567
root 4.71079 16.2222 -17.4604 28.9669 -2.22312 -4.63511
lowerback 10.7786 -0.248726 -0.0684043
upperback -8.06663 1.21938 11.6685
thorax -15.7089 1.56103 13.5242
lowerneck -9.76605 2.8854 1.89396
upperneck 1.67634 3.77994 -3.4838
head 2.34194 1.78806 -1.25801
rclavicle -3.97569e-015 1.90833e-014
rhumerus 113.599 -57.8109 -222.453
rradius 6.40027
rwrist 78.5403
rhand -7.61055 15.4631
rfingers 7.12502
rthumb 18.2835 -13.6976
lclavicle -3.97569e-015 1.90833e-014
lhumerus 34.4509 -26.0721 108.689
lradius 16.4619
lwrist -33.8276
lhand 7.3758 28.6824
lfingers 7.12502
lthumb 32.6333 55.7593
rfemur -56.0239 0.00432073 37.6921
rtibia 38.0425
rfoot -15.935 -22.519
rtoes 3.74243
lfemur -43.4089 23.8476 -41.646
ltibia 61.1486
lfoot 19.3889 41.0926
ltoes 27.4617
568
root 4.68386 16.191 -17.4656 28.5732 -2.25854 -4.71863
lowerback 10.8186 -0.271189 -0.406086
upperback -7.88189 1.11238 11.6852
thorax -15.4893 1.53129 13.7577
lowerneck -9.24845 2.91746 1.89158
upperneck 1.78492 3.82512 -3.318
head 2.27943 1.8202 -1.2064
rclavicle 8.74653e-015 -3.18055e-015
rhumerus 93.138 -63.2117 -201.46
rradius 5.98952
rwrist 61.7372
rhand -8.58735 14.6551
rfingers 7.12502
rthumb 17.3436 -14.5911
lclavicle 8.74653e-015 -3.18055e-015
lhumerus 36.7599 -34.5262 102.665
lradius 18.0073
lwrist -23.5494
lhand 9.71227 30.3149
lfingers 7.12502
lthumb 34.8534 56.9051
rfemur -56.0317 0.219232 37.7817
rtibia 38.742
rfoot -16.2664 -22.8367
rtoes 3.71057
lfemur -43.7758 23.9284 -41.7281
ltibia 62.2922
lfoot 16.1986 41.5478
ltoes 29.6939
569
root 4.65275 16.155 -17.4686 28.2401 -2.4665 -4.76055
lowerback 10.8032 -0.209702 -0.904321
upperback -7.70285 1.08633 11.6624
thorax -15.2653 1.55364 14.0194
lowerneck -8.92824 2.91866 1.82447
upperneck 1.97702 3.83132 -3.06262
head 2.27574 1.83238 -1.11471
rclavicle -2.70347e-014 9.54166e-015
rhumerus 70.1982 -61.1076 -177.326
rradius 4.17474
rwrist 44.5975
rhand -10.1924 11.8929
rfingers 7.12502
rthumb 15.7984 -17.4824
lclavicle -2.70347e-014 9.54166e-015
lhumerus 41.9252 -45.0379 93.2595
lradius 20.7403
lwrist -6.04128
lhand 3.10121 35.4344
lfingers 7.12502
lthumb 28.5573 63.2734
rfemur -56.1741 0.617425 37.7081
rtibia 39.597
rfoot -16.8186 -22.9314
rtoes 5.10157
lfemur -44.2787 24.1725 -42.0124
ltibia 63.3403
lfoot 14.7594 41.2192
ltoes 27.6982
570
root 4.63575 16.119 -17.4332 27.9071 -2.45887 -4.72576
lowerback 10.2811 -0.233166 -0.999244
upperback -7.44128 0.962279 11.5292
thorax -14.5669 1.43338 13.8512
lowerneck -8.97949 2.88422 1.64646
upperneck 2.39938 3.78795 -2.53988
head 2.4061 1.82277 -0.915495
rclavicle 2.22639e-014 -1.59028e-014
rhumerus 49.4138 -57.1078 -156.979
rradius 5.99163
rwrist 27.084
rhand -9.63778 11.0604
rfingers 7.12502
rthumb 16.3324 -18.2719
lclavicle 2.22639e-014 -1.59028e-014
lhumerus 34.528 -36.8105 106.073
lradius 18.1653
lwrist -21.9639
lhand 11.5594 29.092
lfingers 7.12502
lthumb 36.6039 55.2578
rfemur -56.2163 0.142341 38.0172
rtibia 40.5059
rfoot -17.2733 -22.6138
rtoes 5.14251
lfemur -44.416 24.4014 -42.2927
ltibia 64.2698
lfoot 11.5112 37.673
ltoes 24.0219
571
root 4.64335 16.1073 -17.3476 27.2761 -1.95054 -4.49184
lowerback 9.53271 -0.550074 -0.575194
upperback -7.24413 0.502302 11.3336
thorax -13.708 1.08346 13.3406
lowerneck -8.23083 2.79096 1.11614
upperneck 2.60096 3.6906 -1.71703
head 2.29875 1.79824 -0.572921
rclavicle 4.69132e-014 -2.22639e-014
rhumerus 35.8937 -49.4347 -143.68
rradius 6.94276
rwrist 9.93228
rhand -10.38 8.80898
rfingers 7.12502
rthumb 15.6177 -20.5806
lclavicle 4.69132e-014 -2.22639e-014
lhumerus 32.7811 -37.1035 108.422
lradius 18.1636
lwrist -21.9262
lhand 12.8428 28.5118
lfingers 7.12502
lthumb 37.8174 54.3605
rfemur -55.8459 -1.74407 38.6342
rtibia 41.4707
rfoot -18.2695 -21.5505
rtoes 5.31498
lfemur -43.4552 24.4814 -42.3093
ltibia 64.8216
lfoot 10.7661 35.3301
ltoes 19.2142
572
root 4.6179 16.0806 -17.3315 26.6961 -1.81487 -4.6396
lowerback 9.82283 -0.57288 -0.493122
upperback -6.95106 0.466813 11.268
thorax -13.5232 1.03188 13.1972
lowerneck -8.83663 2.73127 0.824742
upperneck 3.20368 3.61724 -1.19128
head 2.59302 1.77012 -0.346212
rclavicle 7.15625e-015 -6.36111e-014
rhumerus 25.743 -40.5857 -134.36
rradius 10.1161
rwrist -6.98952
rhand -10.277 6.34722
rfingers 7.12502
rthumb 15.7169 -23.0345
lclavicle 7.15625e-015 -6.36111e-014
lhumerus 31.4714 -36.1789 111.156
lradius 17.6671
lwrist -23.1228
lhand 15.9308 27.2917
lfingers 7.12502
lthumb 40.7271 52.2943
rfemur -55.7009 -1.92519 38.959
rtibia 42.3483
rfoot -18.5872 -21.7232
rtoes 5.43562
lfemur -43.4438 24.7187 -42.1901
ltibia 65.6418
lfoot 6.53909 33.4731
ltoes 19.71
573
root 4.59802 16.0513 -17.3057 26.0938 -1.70675 -4.64616
lowerback 9.76725 -0.739943 -0.528714
upperback -6.9938 0.217334 11.1731
thorax -13.4738 0.905023 13.1501
lowerneck -6.76535 2.76324 0.47654
upperneck 2.82081 3.68182 -0.797806
head 2.067 1.81876 -0.191952
rclavicle 2.38542e-015 -2.54444e-014
rhumerus 18.8742 -32.1257 -129.323
rradius 13.0492
rwrist -21.4192
rhand -12.0375 3.79956
rfingers 7.12502
rthumb 14.0209 -25.7076
lclavicle 2.38542e-015 -2.54444e-014
lhumerus 36.2037 -45.8384 102.085
lradius 20.0816
lwrist -10.4978
lhand 18.5766 29.6804
lfingers 7.12502
lthumb 43.2069 53.8528
rfemur -55.6063 -2.31988 39.1944
rtibia 43.2084
rfoot -18.136 -22.1632
rtoes 2.86792
lfemur -43.3653 24.8569 -42.2062
ltibia 66.4016
lfoot 3.36184 31.5353
ltoes 19.0738
574
root 4.58214 16.0116 -17.2747 25.4498 -1.5929 -4.84686
lowerback 9.86998 -0.751574 -0.405283
upperback -6.78932 0.210135 11.1844
thorax -13.2901 0.872718 13.0707
lowerneck -6.57077 2.74667 0.302581
upperneck 3.18692 3.67315 -0.691803
head 2.14623 1.81466 -0.129187
rclavicle 1.82882e-014 -3.65764e-014
rhumerus 12.945 -19.7978 -124.45
rradius 17.2064
rwrist -37.626
rhand -14.9403 0.936479
rfingers 7.12502
rthumb 11.2224 -28.7434
lclavicle 1.82882e-014 -3.65764e-014
lhumerus 36.0769 -47.6385 102.258
lradius 20.764
lwrist -9.25285
lhand 20.3698 30.3098
lfingers 7.12502
lthumb 44.8794 53.8567
rfemur -55.2987 -2.6557 39.605
rtibia 43.9938
rfoot -18.5743 -22.4668
rtoes 1.89997
lfemur -43.3785 25.1113 -42.0763
ltibia 67.2892
lfoot 4.10167 30.6267
ltoes 11.2007
575
root 4.56124 15.9627 -17.2564 24.8279 -1.51041 -4.96738
lowerback 8.96803 -0.914462 0.30677
upperback -5.85618 -0.113061 10.6326
thorax -11.5316 0.48477 11.8234
lowerneck -8.09693 2.65997 1.97344
upperneck 3.94504 3.43321 -1.54024
head 2.73734 1.68568 -0.67216
rclavicle 1.03368e-014 3.49861e-014
rhumerus 11.3174 -13.1334 -124.64
rradius 19.9585
rwrist -45.4743
rhand -16.8287 -1.16663
rfingers 7.12502
rthumb 9.40067 -30.937
lclavicle 1.03368e-014 3.49861e-014
lhumerus 38.1624 -49.7472 99.3592
lradius 21.8209
lwrist -8.67246
lhand 22.3456 30.5929
lfingers 7.12502
lthumb 46.7136 53.3843
rfemur -55.0492 -2.76837 39.8127
rtibia 44.8384
rfoot -20.0007 -22.5853
rtoes 4.20334
lfemur -43.4749 25.2869 -42.0545
ltibia 68.1686
lfoot 4.12377 29.8506
ltoes 2.85355
576
root 4.53467 15.9048 -17.2399 24.2374 -1.45411 -4.95122
lowerback 8.86654 -0.803525 0.109036
upperback -5.73804 -0.0206773 10.4764
thorax -11.3483 0.525744 11.7168
lowerneck -7.00847 2.29889 2.47039
upperneck 3.90425 2.95107 -2.01054
head 2.53165 1.44361 -0.944416
rclavicle 0 7.31528e-014
rhumerus 10.0366 -10.3776 -124.606
rradius 20.9868
rwrist -47.7254
rhand -16.7133 -2.65277
rfingers 7.12502
rthumb 9.51199 -32.4181
lclavicle 0 7.31528e-014
lhumerus 38.109 -51.4851 99.0893
lradius 23.0848
lwrist -8.90705
lhand 23.8731 30.3001
lfingers 7.12502
lthumb 48.1246 52.4546
rfemur -54.8276 -2.74835 39.8127
rtibia 45.7108
rfoot -21.586 -22.6539
rtoes 7.16525
lfemur -43.5702 25.4404 -42.1679
ltibia 69.0182
lfoot 0.7675 26.8073
ltoes -2.43207
